<svg width="99" height="99" viewBox="0 0 99 99" fill="none" xmlns="http://www.w3.org/2000/svg">
<path d="M45.75 2.74241C48.0705 1.40267 50.9295 1.40267 53.25 2.74241L88.1183 22.8736C90.4388 24.2134 91.8683 26.6893 91.8683 29.3688V69.6312C91.8683 72.3107 90.4388 74.7866 88.1183 76.1264L53.25 96.2576C50.9295 97.5973 48.0705 97.5973 45.75 96.2576L10.8817 76.1264C8.56124 74.7866 7.13174 72.3107 7.13174 69.6312V29.3688C7.13174 26.6893 8.56124 24.2134 10.8817 22.8736L45.75 2.74241Z" fill="white" stroke="#C7D7E3"/>
<path d="M49.241 41.4562C50.7989 40.6595 51.7903 39.2432 51.5602 36.8886C51.2592 33.6665 48.613 32.5866 45.1076 32.2858V27.8245H42.3813V32.1618C41.6731 32.1618 40.9473 32.1795 40.2215 32.1971V27.8245H37.495V32.2858C36.4927 32.316 35.3253 32.3013 32.0248 32.2858V35.1892C34.1773 35.1511 35.3067 35.0127 35.5656 36.393V48.6083C35.4012 49.7035 34.5248 49.5457 32.5736 49.5111L32.0249 52.7509C36.9959 52.7509 37.4952 52.7686 37.4952 52.7686V56.5893H40.2216V52.8217C40.965 52.8395 41.691 52.8395 42.3815 52.8395V56.5893H45.1078V52.7686C49.6754 52.5207 52.7287 51.37 53.136 47.0681C53.4544 43.616 51.8256 42.0757 49.241 41.4562ZM40.2746 35.3839C41.8148 35.3839 46.6303 34.9059 46.6303 38.1102C46.6303 41.173 41.8149 40.8188 40.2746 40.8188V35.3839ZM40.2746 49.5289V43.5452C42.1159 43.5452 47.754 43.0318 47.754 46.5371C47.7539 49.9184 42.1158 49.5289 40.2746 49.5289Z" fill="#C7D7E3"/>
<path d="M67.7231 59.4475C69.0516 56.5966 69.3332 53.3689 68.5186 50.3311C67.7039 47.2932 65.8451 44.6395 63.2685 42.8358C60.6919 41.0322 57.5622 40.1939 54.4291 40.4682C51.2959 40.7426 48.3595 42.1119 46.1355 44.3359C43.9116 46.5599 42.5422 49.4963 42.2679 52.6294C41.9935 55.7626 42.8318 58.8923 44.6355 61.4689C46.4391 64.0455 49.0928 65.9043 52.1307 66.719C55.1685 67.5336 58.3962 67.2519 61.2471 65.9235L65.9579 67.1003C66.3643 67.2018 66.7901 67.1963 67.1938 67.0845C67.5975 66.9726 67.9653 66.7581 68.2615 66.4619C68.5578 66.1657 68.7722 65.7979 68.8841 65.3942C68.996 64.9905 69.0014 64.5647 68.8999 64.1583L67.7231 59.4475ZM50.7772 56.2567C50.2973 56.2567 49.8282 56.1144 49.4292 55.8478C49.0301 55.5812 48.7191 55.2023 48.5355 54.7589C48.3518 54.3155 48.3038 53.8277 48.3974 53.357C48.491 52.8863 48.7221 52.454 49.0615 52.1146C49.4008 51.7753 49.8331 51.5442 50.3038 51.4506C50.7745 51.357 51.2624 51.405 51.7057 51.5887C52.1491 51.7723 52.528 52.0833 52.7947 52.4823C53.0613 52.8813 53.2036 53.3505 53.2036 53.8304C53.2036 54.4739 52.9479 55.091 52.4929 55.5461C52.0379 56.0011 51.4207 56.2567 50.7772 56.2567ZM60.4828 56.2567C60.0029 56.2567 59.5337 56.1144 59.1347 55.8478C58.7357 55.5812 58.4247 55.2023 58.2411 54.7589C58.0574 54.3155 58.0094 53.8277 58.103 53.357C58.1966 52.8863 58.4277 52.454 58.767 52.1146C59.1064 51.7753 59.5387 51.5442 60.0094 51.4506C60.4801 51.357 60.9679 51.405 61.4113 51.5887C61.8547 51.7723 62.2336 52.0833 62.5002 52.4823C62.7668 52.8813 62.9092 53.3505 62.9092 53.8304C62.9092 54.4739 62.6535 55.091 62.1985 55.5461C61.7434 56.0011 61.1263 56.2567 60.4828 56.2567Z" fill="#262833"/>
</svg>
