<svg width="99" height="99" viewBox="0 0 99 99" fill="none" xmlns="http://www.w3.org/2000/svg">
<path d="M45.75 2.74241C48.0705 1.40267 50.9295 1.40267 53.25 2.74241L88.1183 22.8736C90.4388 24.2134 91.8683 26.6893 91.8683 29.3688V69.6312C91.8683 72.3107 90.4388 74.7866 88.1183 76.1264L53.25 96.2576C50.9295 97.5973 48.0705 97.5973 45.75 96.2576L10.8817 76.1264C8.56124 74.7866 7.13174 72.3107 7.13174 69.6312V29.3688C7.13174 26.6893 8.56124 24.2134 10.8817 22.8736L45.75 2.74241Z" fill="white" stroke="#C7D7E3"/>
<path d="M53.3384 49.8526C53.3384 53.3332 50.6037 56.0679 47.1231 56.0679H44.637V61.0401H39.6648V56.0679H33.4495V51.0957H47.1231C47.8689 51.0957 48.3662 50.5985 48.3662 49.8526C48.3662 49.1068 47.8689 48.6096 47.1231 48.6096H37.1787C33.6981 48.6096 30.9634 45.8748 30.9634 42.3943C30.9634 38.9137 33.6981 36.179 37.1787 36.179H39.6648V31.2068H44.637V36.179H50.8523V41.1512H37.1787C36.4328 41.1512 35.9356 41.6485 35.9356 42.3943C35.9356 43.1401 36.4328 43.6373 37.1787 43.6373H47.1231C50.6037 43.6373 53.3384 46.3721 53.3384 49.8526Z" fill="#C7D7E3"/>
<path fill-rule="evenodd" clip-rule="evenodd" d="M63.9801 41.9312C65.8311 43.7822 65.8311 46.7832 63.9801 48.6342C62.1291 50.4852 59.1281 50.4852 57.2771 48.6342C55.4262 46.7832 55.4262 43.7822 57.2771 41.9312C59.1281 40.0803 62.1291 40.0803 63.9801 41.9312ZM68.3326 37.5788C72.5873 41.8335 72.5873 48.7319 68.3326 52.9867C66.1673 55.1519 63.3174 56.2153 60.4796 56.1767L55.2159 56.2079L55.2081 60.5431L50.8136 60.5481L50.8095 65C49.3627 64.9587 46.0331 64.8016 44.3342 64.5163C42.6353 64.2311 42.1796 62.8681 42.1641 62.2222L42.2571 58.378L50.7501 49.885C48.8717 45.8524 49.5966 40.9068 52.9247 37.5788C57.1794 33.324 64.0778 33.324 68.3326 37.5788Z" fill="#262833"/>
</svg>
