<svg width="99" height="99" viewBox="0 0 99 99" fill="none" xmlns="http://www.w3.org/2000/svg">
<path d="M45.75 2.74241C48.0705 1.40267 50.9295 1.40267 53.25 2.74241L88.1183 22.8736C90.4388 24.2134 91.8683 26.6893 91.8683 29.3688V69.6312C91.8683 72.3107 90.4388 74.7866 88.1183 76.1264L53.25 96.2576C50.9295 97.5973 48.0705 97.5973 45.75 96.2576L10.8817 76.1264C8.56124 74.7866 7.13174 72.3107 7.13174 69.6312V29.3688C7.13174 26.6893 8.56124 24.2134 10.8817 22.8736L45.75 2.74241Z" fill="white" stroke="#C7D7E3"/>
<path d="M39.5429 55.7304C39.9334 56.1209 40.5666 56.1209 40.9571 55.7304L52.7304 43.9571C53.3604 43.3271 52.9142 42.25 52.0233 42.25L47.1615 42.25C46.6092 42.25 46.1615 41.8023 46.1615 41.25L46.1615 29.0625C46.1615 28.5102 45.7137 28.0625 45.1615 28.0625L35.3385 28.0625C34.7863 28.0625 34.3385 28.5102 34.3385 29.0625L34.3385 41.25C34.3385 41.8023 33.8908 42.25 33.3385 42.25L28.4767 42.25C27.5858 42.25 27.1396 43.3271 27.7696 43.9571L39.5429 55.7304Z" fill="#C7D7E3"/>
<path d="M44.9042 38.0376C43.9531 38.0376 43.1875 38.8032 43.1875 39.7542C43.1875 39.7542 43.1875 58.0654 43.1875 67.2209C43.1875 68.0793 44.0458 68.9376 44.9042 68.9376C47.7653 68.9376 53.4875 68.9376 53.4875 68.9376V63.7876C53.4875 62.8366 54.3949 62.0709 55.2042 62.0709H56.9208C57.7301 62.0709 58.6375 62.8366 58.6375 63.7876C58.6375 65.5043 58.6375 67.2209 58.6375 68.9376C58.6375 68.9376 64.3597 68.9376 67.2208 68.9376C68.0792 68.9376 68.9375 68.0793 68.9375 67.2209C68.9375 58.0654 68.9375 39.7542 68.9375 39.7542C68.9375 38.8032 68.1719 38.0376 67.2208 38.0376H44.9042ZM48.3375 43.1876H53.4875V46.6209H48.3375V43.1876ZM58.6375 43.1876H63.7875V46.6209H58.6375V43.1876ZM48.3375 53.4876H53.4875V56.9209H48.3375V53.4876ZM58.6375 53.4876H63.7875V56.9209H58.6375V53.4876Z" fill="#262833"/>
<rect x="48.3281" y="43.1562" width="5.14062" height="3.45312" fill="white"/>
</svg>
