<svg width="20" height="22" viewBox="0 0 25 26" fill="none" xmlns="http://www.w3.org/2000/svg">
<path d="M11.8357 9.38141C12.827 8.87444 13.4579 7.97312 13.3115 6.47475C13.1199 4.42436 11.436 3.73713 9.20532 3.54568V0.706665H7.47037V3.46681C7.01971 3.46681 6.55783 3.47807 6.09595 3.48925V0.706665H4.36096V3.54568C3.72312 3.56494 2.98021 3.55555 0.879883 3.54568V5.39328C2.24969 5.36905 2.96836 5.28103 3.1331 6.15935V13.9327C3.02848 14.6297 2.47082 14.5293 1.22915 14.5073L0.879962 16.5689C4.04333 16.5689 4.36104 16.5802 4.36104 16.5802V19.0116H6.09607V16.614C6.56913 16.6253 7.03114 16.6253 7.47049 16.6253V19.0116H9.20544V16.5802C12.1121 16.4224 14.0551 15.6902 14.3143 12.9526C14.5169 10.7558 13.4804 9.77564 11.8357 9.38141ZM6.12978 5.5172C7.10993 5.5172 10.1743 5.21306 10.1743 7.25215C10.1743 9.20119 7.10997 8.9758 6.12978 8.9758V5.5172ZM6.12978 14.5186V10.7107C7.30149 10.7107 10.8894 10.3841 10.8894 12.6147C10.8893 14.7664 7.30145 14.5186 6.12978 14.5186Z" fill="#C7D7E3"/>
<path d="M23.5965 20.8302C24.4419 19.0161 24.6211 16.9621 24.1027 15.0289C23.5843 13.0957 22.4014 11.407 20.7617 10.2592C19.1221 9.11142 17.1305 8.57798 15.1366 8.75255C13.1428 8.92712 11.2742 9.79854 9.85894 11.2138C8.44369 12.629 7.57227 14.4977 7.39769 16.4915C7.22312 18.4853 7.75656 20.4769 8.90434 22.1166C10.0521 23.7563 11.7409 24.9391 13.674 25.4575C15.6072 25.9759 17.6612 25.7967 19.4754 24.9513L22.4732 25.7002C22.7318 25.7648 23.0028 25.7613 23.2597 25.6902C23.5165 25.619 23.7506 25.4825 23.9391 25.294C24.1276 25.1055 24.2641 24.8714 24.3353 24.6145C24.4065 24.3576 24.41 24.0867 24.3454 23.828L23.5965 20.8302ZM12.8127 18.7998C12.5073 18.7998 12.2088 18.7092 11.9549 18.5396C11.701 18.3699 11.503 18.1287 11.3862 17.8466C11.2693 17.5645 11.2387 17.254 11.2983 16.9545C11.3579 16.655 11.505 16.3798 11.7209 16.1639C11.9368 15.9479 12.212 15.8009 12.5115 15.7413C12.811 15.6817 13.1215 15.7123 13.4036 15.8292C13.6857 15.946 13.9269 16.144 14.0966 16.3979C14.2662 16.6518 14.3568 16.9503 14.3568 17.2557C14.3568 17.6652 14.1941 18.058 13.9045 18.3475C13.615 18.6371 13.2222 18.7998 12.8127 18.7998ZM18.989 18.7998C18.6836 18.7998 18.3851 18.7092 18.1312 18.5396C17.8772 18.3699 17.6793 18.1287 17.5625 17.8466C17.4456 17.5645 17.415 17.254 17.4746 16.9545C17.5342 16.655 17.6812 16.3798 17.8972 16.1639C18.1131 15.9479 18.3882 15.8009 18.6878 15.7413C18.9873 15.6817 19.2977 15.7123 19.5799 15.8292C19.862 15.946 20.1032 16.144 20.2728 16.3979C20.4425 16.6518 20.5331 16.9503 20.5331 17.2557C20.5331 17.6652 20.3704 18.058 20.0808 18.3475C19.7912 18.6371 19.3985 18.7998 18.989 18.7998Z" fill="#262833"/>
</svg>
