<svg width="21" height="16" viewBox="0 0 21 16" fill="none" xmlns="http://www.w3.org/2000/svg">
<path id="email" d="M16.7048 0.537842H3.37142C1.53809 0.537842 0.0380859 2.03784 0.0380859 3.87118V12.2045C0.0380859 14.0378 1.53809 15.5378 3.37142 15.5378H16.7048C18.5381 15.5378 20.0381 14.0378 20.0381 12.2045V3.87118C20.0381 2.03784 18.5381 0.537842 16.7048 0.537842ZM18.0381 5.37118L11.4548 9.78784C11.0381 10.0378 10.5381 10.2045 10.0381 10.2045C9.53809 10.2045 9.03809 10.0378 8.62142 9.78784L2.03809 5.37118C1.70475 5.12118 1.62142 4.62118 1.87142 4.20451C2.12142 3.87118 2.62142 3.78784 3.03809 4.03784L9.62142 8.45451C9.87142 8.62117 10.2881 8.62117 10.5381 8.45451L17.1214 4.03784C17.5381 3.78784 18.0381 3.87118 18.2881 4.28784C18.4548 4.62117 18.3714 5.12118 18.0381 5.37118Z" fill="#262833"/>
</svg>
