<svg width="66" height="66" viewBox="0 0 66 66" fill="none" xmlns="http://www.w3.org/2000/svg">
<path d="M36.75 2.74241L57.3288 14.6236C59.6493 15.9634 61.0788 18.4393 61.0788 21.1188V44.8812C61.0788 47.5607 59.6493 50.0366 57.3288 51.3764L36.75 63.2576C34.4295 64.5973 31.5705 64.5973 29.25 63.2576L8.67116 51.3764C6.35065 50.0366 4.92116 47.5607 4.92116 44.8812V21.1188C4.92116 18.4393 6.35065 15.9634 8.67116 14.6236L29.25 2.74241C31.5705 1.40267 34.4295 1.40267 36.75 2.74241Z" fill="#406785" stroke="#C7D7E3"/>
<path d="M39.4853 25.0147C40.3137 25.0147 40.9853 25.6863 40.9853 26.5147L40.9853 39.4853C40.9853 40.3137 40.3137 40.9853 39.4853 40.9853H26.5147C25.6863 40.9853 25.0147 40.3137 25.0147 39.4853L25.0147 26.5147C25.0147 25.6863 25.6863 25.0147 26.5147 25.0147L39.4853 25.0147Z" stroke="#C7D7E3"/>
<path d="M32.25 15.0104C32.7141 14.7424 33.2859 14.7424 33.75 15.0104L48.2045 23.3557C48.6686 23.6236 48.9545 24.1188 48.9545 24.6547V41.3453C48.9545 41.8812 48.6686 42.3764 48.2045 42.6443L33.75 50.9896C33.2859 51.2576 32.7141 51.2576 32.25 50.9896L17.7955 42.6443C17.3314 42.3764 17.0455 41.8812 17.0455 41.3453V24.6547C17.0455 24.1188 17.3314 23.6236 17.7955 23.3557L32.25 15.0104Z" stroke="#C7D7E3"/>
</svg>
