<svg width="20" height="22" viewBox="0 0 28 27" fill="none" xmlns="http://www.w3.org/2000/svg">
<path d="M8.40706 18.2077C8.79759 18.5982 9.43075 18.5982 9.82127 18.2077L16.4355 11.5935C17.0654 10.9635 16.6193 9.88638 15.7284 9.88638L13.876 9.88638C13.3237 9.88638 12.876 9.43867 12.876 8.88638L12.876 1.85797C12.876 1.30569 12.4283 0.857975 11.876 0.857974L6.35233 0.857974C5.80005 0.857974 5.35233 1.30569 5.35233 1.85797L5.35233 8.88638C5.35233 9.43867 4.90462 9.88638 4.35233 9.88638L2.49997 9.88638C1.60907 9.88638 1.1629 10.9635 1.79287 11.5935L8.40706 18.2077Z" fill="#C7D7E3"/>
<path d="M12.0758 7.20593C11.4706 7.20593 10.9834 7.69314 10.9834 8.29835C10.9834 8.29835 10.9834 19.9509 10.9834 25.7771C10.9834 26.3234 11.5296 26.8696 12.0758 26.8696C13.8965 26.8696 17.5379 26.8696 17.5379 26.8696V23.5923C17.5379 22.9871 18.1154 22.4999 18.6304 22.4999H19.7228C20.2378 22.4999 20.8152 22.9871 20.8152 23.5923C20.8152 24.6847 20.8152 25.7771 20.8152 26.8696C20.8152 26.8696 24.4566 26.8696 26.2773 26.8696C26.8236 26.8696 27.3698 26.3234 27.3698 25.7771C27.3698 19.9509 27.3698 8.29835 27.3698 8.29835C27.3698 7.69314 26.8825 7.20593 26.2773 7.20593H12.0758ZM14.2607 10.4832H17.5379V12.6681H14.2607V10.4832ZM20.8152 10.4832H24.0925V12.6681H20.8152V10.4832ZM14.2607 17.0377H17.5379V19.2226H14.2607V17.0377ZM20.8152 17.0377H24.0925V19.2226H20.8152V17.0377Z" fill="#262833"/>
<rect x="14.2549" y="10.4631" width="3.27131" height="2.19744" fill="white"/>
</svg>
