<svg viewBox="0 0 104 162" fill="none" xmlns="http://www.w3.org/2000/svg">
<path d="M39.4278 107.347C39.0528 107.722 38.5441 107.932 38.0138 107.932L13.7254 107.932C12.8344 107.932 12.3883 106.855 13.0184 106.225L64.5518 54.7028C64.9269 54.3278 65.4355 54.1172 65.9659 54.1172L90.2542 54.1172C91.1452 54.1172 91.5913 55.1944 90.9613 55.8243L39.4278 107.347Z" fill="#262833"/>
<path d="M75.7704 0.791255C76.1455 0.416244 76.6542 0.205568 77.1845 0.205568L101.473 0.205569C102.364 0.205569 102.81 1.28277 102.18 1.91272L5.44279 98.6384C4.96027 99.1208 4.1475 98.9894 3.8683 98.3668C-0.247604 89.1885 -0.501471 77.0538 11.4961 65.0564L75.7704 0.791255Z" fill="#262833"/>
<path d="M28.2293 161.209C27.8543 161.584 27.3456 161.794 26.8152 161.794L2.52673 161.794C1.6358 161.794 1.18964 160.717 1.81966 160.087L98.557 63.3615C99.0395 62.8791 99.8523 63.0105 100.131 63.6331C104.247 72.8114 104.501 84.9461 92.5037 96.9435L28.2293 161.209Z" fill="#262833"/>
</svg>
