<svg width="104" height="162" viewBox="0 0 104 162" fill="none" xmlns="http://www.w3.org/2000/svg">
<path d="M39.4507 107.347C39.0756 107.722 38.567 107.932 38.0366 107.932L13.7482 107.932C12.8573 107.932 12.4111 106.855 13.0412 106.225L64.5746 54.7028C64.9497 54.3278 65.4583 54.1172 65.9887 54.1172L90.2771 54.1172C91.168 54.1172 91.6142 55.1944 90.9841 55.8243L39.4507 107.347Z" fill="white"/>
<path d="M75.7933 0.791255C76.1683 0.416244 76.677 0.205568 77.2074 0.205568L101.496 0.205569C102.387 0.205569 102.833 1.28277 102.203 1.91272L5.46561 98.6384C4.9831 99.1208 4.17032 98.9894 3.89113 98.3668C-0.224777 89.1885 -0.478644 77.0538 11.5189 65.0564L75.7933 0.791255Z" fill="white"/>
<path d="M28.2522 161.209C27.8771 161.584 27.3684 161.794 26.838 161.794L2.54956 161.794C1.65862 161.794 1.21247 160.717 1.84249 160.087L98.5798 63.3615C99.0623 62.8791 99.8751 63.0105 100.154 63.6331C104.27 72.8114 104.524 84.9461 92.5265 96.9435L28.2522 161.209Z" fill="white"/>
</svg>
