<svg width="32" height="23" viewBox="0 0 32 23" fill="none" xmlns="http://www.w3.org/2000/svg">
<path d="M15.7414 0.055542H3.54203C1.86462 0.055542 0.492188 1.42797 0.492188 3.10539V10.73C0.492188 12.4074 1.86462 13.7798 3.54203 13.7798H15.7414C17.4188 13.7798 18.7913 12.4074 18.7913 10.73V3.10539C18.7913 1.42797 17.4188 0.055542 15.7414 0.055542ZM16.9614 4.47782L10.9379 8.51886C10.5567 8.7476 10.0992 8.90009 9.64172 8.90009C9.18425 8.90009 8.72677 8.7476 8.34554 8.51886L2.3221 4.47782C2.01711 4.24908 1.94086 3.7916 2.1696 3.41037C2.39834 3.10539 2.85582 3.02914 3.23705 3.25788L9.26049 7.29892C9.48923 7.45142 9.87046 7.45142 10.0992 7.29892L16.1226 3.25788C16.5039 3.02914 16.9614 3.10539 17.1901 3.48662C17.3426 3.7916 17.2663 4.24908 16.9614 4.47782Z" fill="#C7D7E3"/>
<path d="M22.1971 15.4138V14.9515C22.1971 14.3878 21.7402 13.9309 21.1769 13.9309C20.6131 13.9309 20.1562 14.3878 20.1562 14.9515V15.4138C20.1562 15.9776 20.6131 16.4344 21.1769 16.4344C21.7398 16.4344 22.1971 15.9776 22.1971 15.4138Z" fill="#262833"/>
<path d="M22.8962 15.9784C22.67 16.7186 21.9886 17.262 21.176 17.262C20.3628 17.262 19.6815 16.7186 19.4553 15.9784H12.4264C11.9828 15.9784 11.5636 15.8752 11.1875 15.6963V20.3633C11.1875 21.2746 11.9331 22.0202 12.8444 22.0202H29.5067C30.418 22.0202 31.1636 21.2746 31.1636 20.3633V15.6967C30.7871 15.8756 30.3683 15.9788 29.9247 15.9788H22.8962V15.9784Z" fill="#262833"/>
<path d="M29.8564 7.59803H25.8795C25.6393 6.09608 24.3382 4.94373 22.7696 4.94373H19.583C18.0144 4.94373 16.7137 6.09608 16.473 7.59803H12.4966C11.5472 7.59803 10.7705 8.34363 10.7705 9.25491V13.0794C10.7705 13.9944 11.5124 14.7363 12.4274 14.7363H19.378C19.4016 14.2595 19.6062 13.8312 19.9297 13.5214C19.9396 13.5118 19.9512 13.5044 19.9616 13.4953C20.0333 13.4294 20.1078 13.3673 20.1894 13.3134C20.2184 13.2939 20.2515 13.2807 20.2818 13.2633C20.3489 13.2248 20.4152 13.1846 20.4876 13.1548C20.5444 13.1312 20.6057 13.1175 20.6653 13.0997C20.7167 13.0844 20.7656 13.0641 20.819 13.0533C20.9346 13.0297 21.0543 13.0173 21.1765 13.0173C21.2991 13.0173 21.4184 13.0301 21.534 13.0533C21.587 13.0641 21.6359 13.0844 21.6872 13.0997C21.7469 13.1175 21.8082 13.1312 21.8649 13.1552C21.937 13.185 22.0029 13.2248 22.07 13.2633C22.1006 13.2811 22.1337 13.2944 22.1632 13.3138C22.2448 13.3673 22.3189 13.4294 22.3906 13.4953C22.4009 13.5048 22.4129 13.5122 22.4229 13.5222C22.7468 13.832 22.951 14.2603 22.9746 14.7371H29.9252C30.8402 14.7371 31.5821 13.9952 31.5821 13.0802V9.25574C31.5825 8.34363 30.8058 7.59803 29.8564 7.59803ZM18.0682 7.59803C18.2795 6.95972 18.8747 6.49456 19.583 6.49456H22.7696C23.4779 6.49456 24.0731 6.95972 24.2844 7.59803H18.0682Z" fill="#262833"/>
</svg>
