<svg width="20" height="22" viewBox="0 0 29 27" fill="none" xmlns="http://www.w3.org/2000/svg">
<path d="M14.4413 12.7244C14.4413 14.9393 12.701 16.6796 10.4861 16.6796H8.90403V19.8437H5.73988V16.6796H1.78471V13.5155H10.4861C10.9607 13.5155 11.2771 13.199 11.2771 12.7244C11.2771 12.2498 10.9607 11.9334 10.4861 11.9334H4.15781C1.94291 11.9334 0.202637 10.1931 0.202637 7.9782C0.202637 5.76331 1.94291 4.02303 4.15781 4.02303H5.73988V0.858887H8.90403V4.02303H12.8592V7.18717H4.15781C3.68319 7.18717 3.36678 7.50358 3.36678 7.9782C3.36678 8.45283 3.68319 8.76924 4.15781 8.76924H10.4861C12.701 8.76924 14.4413 10.5095 14.4413 12.7244Z" fill="#C7D7E3"/>
<path fill-rule="evenodd" clip-rule="evenodd" d="M21.213 7.68351C22.3909 8.8614 22.3909 10.7711 21.213 11.949C20.0351 13.1269 18.1254 13.1269 16.9475 11.949C15.7696 10.7711 15.7696 8.8614 16.9475 7.68351C18.1254 6.50562 20.0351 6.50562 21.213 7.68351ZM23.9828 4.91376C26.6903 7.62134 26.6903 12.0112 23.9828 14.7188C22.6044 16.0971 20.7901 16.7738 18.9837 16.7488L15.6355 16.7686L15.6306 19.5274L12.8341 19.5306L12.8314 22.3636C11.9108 22.3373 9.79196 22.2373 8.71084 22.0558C7.62972 21.8743 7.33971 21.0069 7.32984 20.5959L7.38902 18.1496L12.7938 12.7448C11.5986 10.1786 12.0599 7.03157 14.1777 4.91376C16.8853 2.20617 21.2752 2.20617 23.9828 4.91376Z" fill="#262833"/>
</svg>
